<svg width="33" height="33" viewBox="0 0 33 33" fill="none" xmlns="http://www.w3.org/2000/svg">
<g clip-path="url(#clip0_0_71)">
<path d="M16.5 33C25.6127 33 33 25.6126 33 16.4999C33 7.38725 25.6127 0 16.5 0C7.38728 0 0 7.38725 0 16.4999C0 25.6126 7.38728 33 16.5 33Z" fill="#2CA01C"/>
<path d="M4.58173 16.4998C4.58173 20.0433 7.45442 22.9165 10.998 22.9165H11.9147V20.533H10.998C8.77411 20.533 6.9646 18.723 6.9646 16.4998C6.9646 14.2754 8.77411 12.4664 10.998 12.4664H13.2008V24.9327C13.2008 26.2488 14.2681 27.3161 15.5842 27.3161V10.083H10.998C7.45442 10.083 4.58173 12.9562 4.58173 16.4998ZM22.0016 10.0841H21.0848V12.4675H22.0016C24.2253 12.4675 26.0349 14.2766 26.0344 16.5009C26.0344 18.7251 24.2253 20.5341 22.0016 20.5341H19.7987V8.06684C19.7987 6.75059 18.7314 5.6844 17.4153 5.6844V22.9165H22.0016C25.5451 22.9165 28.4177 20.0444 28.4177 16.5009C28.4177 12.9562 25.5451 10.0841 22.0016 10.0841Z" fill="white"/>
</g>
<defs>
<clipPath id="clip0_0_71">
<rect width="32.7778" height="32.7778" fill="white" transform="scale(1.00678)"/>
</clipPath>
</defs>
</svg>
