<svg width="16" height="16" viewBox="0 0 16 16" fill="none" xmlns="http://www.w3.org/2000/svg">
<path d="M8 5.00003C7.40665 5.00003 6.82663 5.17598 6.33329 5.50562C5.83994 5.83526 5.45542 6.3038 5.22836 6.85198C5.0013 7.40016 4.94189 8.00336 5.05764 8.5853C5.1734 9.16724 5.45912 9.70179 5.87868 10.1213C6.29824 10.5409 6.83278 10.8266 7.41473 10.9424C7.99667 11.0581 8.59987 10.9987 9.14805 10.7717C9.69623 10.5446 10.1648 10.1601 10.4944 9.66674C10.8241 9.17339 11 8.59337 11 8.00003C10.9992 7.20463 10.6828 6.44205 10.1204 5.87962C9.55798 5.31719 8.79539 5.00086 8 5.00003ZM8 10C7.60444 10 7.21776 9.88273 6.88886 9.66297C6.55996 9.4432 6.30361 9.13085 6.15224 8.7654C6.00086 8.39994 5.96126 7.99781 6.03843 7.60985C6.1156 7.22189 6.30608 6.86552 6.58578 6.58581C6.86549 6.30611 7.22186 6.11563 7.60982 6.03846C7.99778 5.96129 8.39991 6.00089 8.76536 6.15227C9.13082 6.30364 9.44317 6.55999 9.66294 6.88889C9.8827 7.21779 10 7.60447 10 8.00003C10 8.53046 9.78928 9.03917 9.41421 9.41424C9.03914 9.78931 8.53043 10 8 10ZM13.5 8.13503C13.5025 8.04503 13.5025 7.95503 13.5 7.86503L14.4325 6.70003C14.4814 6.63886 14.5152 6.56706 14.5313 6.49042C14.5474 6.41378 14.5452 6.33443 14.525 6.25878C14.3721 5.68415 14.1435 5.13243 13.845 4.61815C13.8059 4.55085 13.7517 4.4936 13.6866 4.45096C13.6215 4.40832 13.5473 4.38146 13.47 4.37253L11.9875 4.20753C11.9258 4.14253 11.8633 4.08003 11.8 4.02003L11.625 2.53378C11.616 2.45641 11.589 2.38222 11.5463 2.31711C11.5035 2.252 11.4462 2.19779 11.3787 2.15878C10.8643 1.86087 10.3126 1.63242 9.73812 1.4794C9.66242 1.45928 9.58305 1.45722 9.5064 1.47339C9.42976 1.48957 9.35799 1.52353 9.29687 1.57253L8.135 2.50003C8.045 2.50003 7.955 2.50003 7.865 2.50003L6.7 1.5694C6.63883 1.52051 6.56703 1.48666 6.49039 1.4706C6.41375 1.45453 6.3344 1.45669 6.25875 1.4769C5.68422 1.63005 5.13253 1.85871 4.61812 2.1569C4.55082 2.19598 4.49357 2.25023 4.45093 2.31533C4.40829 2.38044 4.38143 2.45459 4.3725 2.5319L4.2075 4.0169C4.1425 4.07899 4.08 4.14149 4.02 4.2044L2.53375 4.37503C2.45638 4.38403 2.38219 4.41098 2.31708 4.45373C2.25197 4.49649 2.19775 4.55386 2.15875 4.62128C1.86084 5.13576 1.63239 5.68743 1.47937 6.2619C1.45925 6.33761 1.45719 6.41698 1.47336 6.49362C1.48954 6.57027 1.5235 6.64204 1.5725 6.70315L2.5 7.86503C2.5 7.95503 2.5 8.04503 2.5 8.13503L1.56937 9.30003C1.52048 9.3612 1.48663 9.43299 1.47057 9.50964C1.4545 9.58628 1.45666 9.66562 1.47687 9.74128C1.62974 10.3159 1.85842 10.8676 2.15687 11.3819C2.19595 11.4492 2.2502 11.5065 2.3153 11.5491C2.38041 11.5917 2.45456 11.6186 2.53187 11.6275L4.01437 11.7925C4.07646 11.8575 4.13896 11.92 4.20187 11.98L4.375 13.4663C4.384 13.5436 4.41095 13.6178 4.4537 13.6829C4.49646 13.7481 4.55383 13.8023 4.62125 13.8413C5.13573 14.1392 5.6874 14.3676 6.26187 14.5207C6.33758 14.5408 6.41695 14.5428 6.49359 14.5267C6.57024 14.5105 6.64201 14.4765 6.70312 14.4275L7.865 13.5C7.955 13.5025 8.045 13.5025 8.135 13.5L9.3 14.4325C9.36117 14.4814 9.43296 14.5153 9.50961 14.5313C9.58625 14.5474 9.66559 14.5452 9.74125 14.525C10.3159 14.3722 10.8676 14.1435 11.3819 13.845C11.4492 13.806 11.5064 13.7517 11.5491 13.6866C11.5917 13.6215 11.6186 13.5473 11.6275 13.47L11.7925 11.9875C11.8575 11.9259 11.92 11.8634 11.98 11.8L13.4662 11.625C13.5436 11.616 13.6178 11.5891 13.6829 11.5463C13.748 11.5036 13.8022 11.4462 13.8412 11.3788C14.1392 10.8643 14.3676 10.3126 14.5206 9.73815C14.5408 9.66245 14.5428 9.58308 14.5266 9.50643C14.5105 9.42979 14.4765 9.35802 14.4275 9.2969L13.5 8.13503ZM12.4937 7.72878C12.5044 7.90946 12.5044 8.0906 12.4937 8.27128C12.4863 8.39498 12.5251 8.51703 12.6025 8.61378L13.4894 9.7219C13.3876 10.0453 13.2573 10.3591 13.1 10.6594L11.6875 10.8194C11.5645 10.8331 11.4509 10.8918 11.3687 10.9844C11.2484 11.1197 11.1203 11.2478 10.985 11.3682C10.8924 11.4503 10.8337 11.5639 10.82 11.6869L10.6631 13.0982C10.3628 13.2555 10.0491 13.3858 9.72562 13.4875L8.61687 12.6007C8.52815 12.5298 8.41794 12.4912 8.30437 12.4913H8.27437C8.0937 12.5019 7.91255 12.5019 7.73187 12.4913C7.60817 12.4838 7.48612 12.5226 7.38937 12.6L6.27812 13.4875C5.95471 13.3858 5.64097 13.2555 5.34062 13.0982L5.18062 11.6875C5.16697 11.5645 5.10818 11.4509 5.01562 11.3688C4.88032 11.2485 4.75218 11.1203 4.63187 10.985C4.54971 10.8925 4.43613 10.8337 4.31312 10.82L2.90187 10.6625C2.74449 10.3622 2.61419 10.0485 2.5125 9.72503L3.39937 8.61628C3.47681 8.51953 3.51557 8.39748 3.50812 8.27378C3.4975 8.0931 3.4975 7.91196 3.50812 7.73128C3.51557 7.60758 3.47681 7.48552 3.39937 7.38878L2.5125 6.27815C2.61426 5.95474 2.74457 5.641 2.90187 5.34065L4.3125 5.18065C4.43551 5.167 4.54908 5.10821 4.63125 5.01565C4.75155 4.88035 4.87969 4.75221 5.015 4.6319C5.10792 4.54968 5.16695 4.43585 5.18062 4.31253L5.3375 2.9019C5.63781 2.74452 5.95155 2.61422 6.275 2.51253L7.38375 3.3994C7.48049 3.47684 7.60255 3.5156 7.72625 3.50815C7.90693 3.49753 8.08807 3.49753 8.26875 3.50815C8.39245 3.5156 8.5145 3.47684 8.61125 3.3994L9.72187 2.51253C10.0453 2.61429 10.359 2.7446 10.6594 2.9019L10.8194 4.31253C10.833 4.43554 10.8918 4.54911 10.9844 4.63128C11.1197 4.75159 11.2478 4.87972 11.3681 5.01503C11.4503 5.10758 11.5639 5.16637 11.6869 5.18003L13.0981 5.3369C13.2555 5.63722 13.3858 5.95096 13.4875 6.2744L12.6006 7.38315C12.5224 7.48071 12.4836 7.60403 12.4919 7.72878H12.4937Z" fill="white"/>
</svg>
