<svg width="33" height="33" viewBox="0 0 33 33" fill="none" xmlns="http://www.w3.org/2000/svg">
<g clip-path="url(#clip0_0_41)">
<g clip-path="url(#clip1_0_41)">
<path d="M17.3869 18.7871H21.5497C22.7335 18.7871 23.4826 18.1357 23.4826 17.0891C23.4826 16.1021 22.7335 15.3911 21.5497 15.3911H17.3869C17.249 15.3911 17.131 15.5091 17.131 15.6285V18.5496C17.1496 18.6876 17.2477 18.7871 17.3869 18.7871ZM17.3869 25.5181H21.6875C23.0093 25.5181 23.7981 24.8468 23.7981 23.6622C23.7981 22.6355 23.0491 21.8063 21.6875 21.8063H17.3869C17.249 21.8063 17.131 21.9244 17.131 22.0438V25.2621C17.1496 25.4199 17.2477 25.5181 17.3869 25.5181Z" fill="#34313F"/>
<path d="M32.6168 0.0732421L20.3061 12.3521H22.3185C25.4552 12.3521 27.3099 14.326 27.3099 16.4777C27.3099 18.1757 26.1658 19.4187 24.9421 19.9719C24.7446 20.0515 24.7446 20.3275 24.962 20.4057C26.3819 20.9589 27.3881 22.4394 27.3881 24.1759C27.3881 26.6234 25.7508 28.5774 22.5744 28.5774H13.8551C13.7172 28.5774 13.5992 28.4594 13.5992 28.34V19.042L0.0847704 32.5068C-0.0928769 32.6845 0.0251127 33.0003 0.282304 33.0003H32.7745C32.8925 33.0003 32.992 32.9021 32.992 32.7827V0.251004C33.0503 0.0334447 32.7745 -0.0846209 32.6168 0.0732421Z" fill="#34313F"/>
</g>
</g>
<defs>
<clipPath id="clip0_0_41">
<rect width="32.7778" height="32.7778" fill="white" transform="scale(1.00678)"/>
</clipPath>
<clipPath id="clip1_0_41">
<rect width="32.7778" height="32.7778" fill="white" transform="scale(1.00678)"/>
</clipPath>
</defs>
</svg>
