<svg width="16" height="16" viewBox="0 0 16 16" fill="none" xmlns="http://www.w3.org/2000/svg">
<path d="M15.5 8.00002C15.5032 9.19075 15.1169 10.3499 14.4 11.3006C14.3605 11.3532 14.3111 11.3974 14.2545 11.4308C14.198 11.4643 14.1353 11.4862 14.0703 11.4954C14.0052 11.5047 13.939 11.501 13.8754 11.4846C13.8117 11.4682 13.7519 11.4395 13.6994 11.4C13.6469 11.3605 13.6026 11.3111 13.5692 11.2545C13.5358 11.198 13.5138 11.1353 13.5046 11.0703C13.4954 11.0052 13.4991 10.939 13.5154 10.8754C13.5318 10.8117 13.5605 10.7519 13.6 10.6994C14.1868 9.92205 14.5029 8.97396 14.5 8.00002C14.5 6.80654 14.0259 5.66195 13.182 4.81804C12.3381 3.97412 11.1935 3.50002 10 3.50002C8.80655 3.50002 7.66195 3.97412 6.81804 4.81804C5.97412 5.66195 5.50002 6.80654 5.50002 8.00002C5.50002 8.13263 5.44734 8.2598 5.35357 8.35357C5.2598 8.44734 5.13263 8.50002 5.00002 8.50002C4.86741 8.50002 4.74023 8.44734 4.64647 8.35357C4.5527 8.2598 4.50002 8.13263 4.50002 8.00002C4.49977 7.49544 4.56896 6.99323 4.70564 6.50752C4.63752 6.50002 4.56877 6.50002 4.50002 6.50002C3.70437 6.50002 2.94131 6.81609 2.3787 7.3787C1.81609 7.94131 1.50002 8.70437 1.50002 9.50002C1.50002 10.2957 1.81609 11.0587 2.3787 11.6213C2.94131 12.1839 3.70437 12.5 4.50002 12.5H6.00002C6.13263 12.5 6.2598 12.5527 6.35357 12.6465C6.44734 12.7402 6.50002 12.8674 6.50002 13C6.50002 13.1326 6.44734 13.2598 6.35357 13.3536C6.2598 13.4473 6.13263 13.5 6.00002 13.5H4.50002C3.95013 13.5001 3.40612 13.3869 2.90196 13.1673C2.39781 12.9478 1.94434 12.6266 1.56988 12.2239C1.19542 11.8212 0.908003 11.3457 0.725592 10.8269C0.543181 10.3082 0.469689 9.75736 0.509706 9.20893C0.549723 8.6605 0.702389 8.12621 0.958169 7.63942C1.21395 7.15264 1.56735 6.72383 1.9963 6.37976C2.42525 6.0357 2.92053 5.78377 3.45122 5.63971C3.98191 5.49566 4.5366 5.46257 5.08064 5.54252C5.63464 4.43449 6.54648 3.54594 7.66847 3.02079C8.79046 2.49564 10.0569 2.36464 11.2626 2.64902C12.4683 2.9334 13.5427 3.6165 14.3118 4.58767C15.0809 5.55885 15.4995 6.76121 15.5 8.00002ZM9.85377 7.64627C9.80733 7.59978 9.75219 7.5629 9.69149 7.53774C9.63079 7.51258 9.56573 7.49962 9.50002 7.49962C9.43431 7.49962 9.36925 7.51258 9.30855 7.53774C9.24785 7.5629 9.19271 7.59978 9.14627 7.64627L7.14627 9.64627C7.09981 9.69272 7.06296 9.74787 7.03782 9.80857C7.01268 9.86927 6.99974 9.93432 6.99974 10C6.99974 10.0657 7.01268 10.1308 7.03782 10.1915C7.06296 10.2522 7.09981 10.3073 7.14627 10.3538C7.24009 10.4476 7.36734 10.5003 7.50002 10.5003C7.56572 10.5003 7.63077 10.4874 7.69147 10.4622C7.75216 10.4371 7.80731 10.4002 7.85377 10.3538L9.00002 9.20689V13C9.00002 13.1326 9.0527 13.2598 9.14647 13.3536C9.24023 13.4473 9.36741 13.5 9.50002 13.5C9.63263 13.5 9.7598 13.4473 9.85357 13.3536C9.94734 13.2598 10 13.1326 10 13V9.20689L11.1463 10.3538C11.1927 10.4002 11.2479 10.4371 11.3086 10.4622C11.3693 10.4874 11.4343 10.5003 11.5 10.5003C11.5657 10.5003 11.6308 10.4874 11.6915 10.4622C11.7522 10.4371 11.8073 10.4002 11.8538 10.3538C11.9002 10.3073 11.9371 10.2522 11.9622 10.1915C11.9874 10.1308 12.0003 10.0657 12.0003 10C12.0003 9.93432 11.9874 9.86927 11.9622 9.80857C11.9371 9.74787 11.9002 9.69272 11.8538 9.64627L9.85377 7.64627Z" fill="#18181B"/>
</svg>
