<svg width="31" height="33" viewBox="0 0 31 33" fill="none" xmlns="http://www.w3.org/2000/svg">
<g clip-path="url(#clip0_0_66)">
<path d="M6.46049 16.504C6.18611 16.4914 5.91107 16.5084 5.64105 16.5547C5.19059 16.6212 4.7591 16.7689 4.37172 16.9893C3.98434 17.2098 3.64881 17.4985 3.38469 17.8386C3.12057 18.1788 2.93313 18.5636 2.83331 18.9706C2.73348 19.3777 2.72325 19.7988 2.80323 20.2095C2.99955 21.9033 4.97473 23.3316 6.80322 23.3741C6.99088 23.3784 7.17858 23.3671 7.36397 23.3401C9.34261 23.0472 9.86067 21.1831 9.53452 19.3521C9.1661 17.2847 7.55442 16.556 6.46049 16.504ZM8.39926 21.4021C8.31574 21.5164 8.1998 21.6079 8.06384 21.6666C7.92789 21.7254 7.77702 21.7492 7.62738 21.7357C7.36432 21.7166 7.11901 21.6069 6.94114 21.4287C6.76327 21.2505 6.66614 21.0171 6.66942 20.7759C6.66484 20.4544 6.73263 20.1356 6.86857 19.8391C6.95346 19.6507 6.96162 19.4408 6.89157 19.2474C6.82151 19.054 6.67789 18.89 6.4868 18.7852C6.252 18.6521 5.97029 18.6065 5.69979 18.6578C5.4378 18.7038 5.20629 18.8426 5.05568 19.0439C4.95401 19.1941 4.87464 19.3561 4.81966 19.5255C4.80894 19.5551 4.80044 19.5784 4.79397 19.5936C4.70432 19.8026 4.56126 19.8637 4.46452 19.8523C4.4289 19.8464 4.3959 19.8312 4.36947 19.8085C4.34304 19.7859 4.3243 19.7568 4.31547 19.7247C4.26529 19.4456 4.2888 19.1597 4.38404 18.8906C4.47929 18.6216 4.6435 18.3772 4.86299 18.178C5.05414 18.0036 5.28633 17.8713 5.54184 17.7914C5.79736 17.7114 6.06947 17.6858 6.33744 17.7166C6.61884 17.7475 6.88778 17.8406 7.12103 17.9878C7.35428 18.135 7.54483 18.3318 7.67622 18.5614C7.80265 18.8377 7.85379 19.138 7.82525 19.4364C7.7967 19.7347 7.68933 20.0223 7.51236 20.2743C7.48999 20.3179 7.46951 20.3579 7.45201 20.3935C7.38836 20.4923 7.35323 20.6042 7.34993 20.7188C7.34662 20.8334 7.37524 20.9468 7.43311 21.0485C7.48402 21.1105 7.55049 21.1604 7.62691 21.194C7.70333 21.2277 7.78746 21.244 7.87223 21.2417C7.95316 21.2407 8.03367 21.2309 8.11204 21.2124C8.21366 21.1919 8.31876 21.1707 8.38272 21.2403C8.40395 21.2622 8.41699 21.2896 8.41997 21.3187C8.42294 21.3478 8.41569 21.3771 8.39926 21.4021V21.4021Z" fill="white"/>
<path d="M27.1281 19.194C27.3097 19.0334 27.4513 18.8371 27.5428 18.619C27.6344 18.4009 27.6735 18.1664 27.6576 17.9324C27.6212 17.6966 27.5043 17.4782 27.3244 17.3105C26.7966 16.8982 26.1687 16.6153 25.4965 16.4868C25.1894 16.4048 24.9811 16.3523 24.7567 16.2821C24.3575 16.1571 24.1603 16.0564 24.1156 15.3425C24.0961 15.0303 24.0389 13.9426 24.0183 13.4931C23.9819 12.7055 23.8822 11.629 23.1802 11.1845C23.0016 11.073 22.7939 11.0099 22.5798 11.002C22.4599 10.995 22.3396 11.0062 22.2235 11.0351C21.8672 11.1135 21.5429 11.2879 21.2903 11.537C20.9632 11.818 20.5777 12.0319 20.1581 12.1652C19.7384 12.2985 19.294 12.3482 18.8528 12.3111C18.3614 12.2915 17.8407 12.2188 17.2438 12.1851C17.1277 12.1786 17.0112 12.1718 16.8949 12.166C16.1236 12.1874 15.3861 12.4691 14.8171 12.9595C14.248 13.4499 13.8853 14.1165 13.795 14.8376C13.4532 17.0744 15.1559 18.2302 15.6474 18.9085C15.7234 18.9951 15.7705 19.1009 15.7827 19.2126C15.7699 19.3365 15.7073 19.4511 15.6077 19.533L15.6078 19.5336C14.9272 20.2546 14.4493 21.1246 14.2178 22.0641C13.9863 23.0036 14.0087 23.9827 14.2828 24.912C14.3477 25.1352 14.431 25.3533 14.5318 25.5643C15.7742 28.3264 19.6283 29.6126 23.3936 28.4428C23.8868 28.2895 24.3654 28.0972 24.824 27.8678C25.6496 27.4795 26.3921 26.9516 27.0146 26.3104C27.9858 25.3836 28.6236 24.1935 28.8384 22.9077C28.9518 22.1958 28.7857 21.9203 28.5596 21.7878C28.3999 21.7033 28.2148 21.6712 28.0336 21.6965C27.9378 21.1377 27.7696 20.5921 27.5327 20.0717L27.1281 19.194Z" fill="white"/>
<path d="M20.5545 7.38759C20.6148 7.40392 20.6532 7.28098 20.5992 7.24528C19.7057 6.6992 18.7201 6.39503 17.7144 6.35491C17.7047 6.35474 17.6952 6.35142 17.6871 6.34532C17.6789 6.33921 17.6723 6.33057 17.6681 6.32033C17.6638 6.3101 17.662 6.29867 17.6629 6.28731C17.6638 6.27595 17.6673 6.26511 17.6731 6.25597C17.8294 6.01497 18.012 5.79925 18.216 5.61437C18.2251 5.60601 18.2317 5.59441 18.2349 5.58128C18.238 5.56816 18.2375 5.55419 18.2335 5.54141C18.2294 5.52864 18.222 5.51774 18.2123 5.51031C18.2026 5.50288 18.1911 5.4993 18.1796 5.5001C16.9481 5.64276 15.7642 6.13501 14.7291 6.93475C14.7202 6.94178 14.7098 6.94552 14.6992 6.94549C14.6885 6.94545 14.6781 6.94166 14.6693 6.93458C14.6605 6.9275 14.6537 6.91748 14.6498 6.9058C14.6459 6.89411 14.6451 6.88132 14.6474 6.86906C14.7308 6.50236 14.8535 6.1497 15.0125 5.81962C15.0178 5.80829 15.0198 5.79527 15.0183 5.78249C15.0168 5.7697 15.0118 5.75782 15.0042 5.7486C14.9965 5.73938 14.9866 5.73331 14.9758 5.73127C14.9649 5.72924 14.9539 5.73135 14.9442 5.73729C13.4494 6.70551 12.1173 7.98758 11.0132 9.52039C11.0046 9.53206 10.9999 9.54706 11 9.56254C11.0002 9.57802 11.0051 9.5929 11.0139 9.60435C11.0228 9.6158 11.0349 9.62302 11.0479 9.62464C11.061 9.62626 11.0741 9.62217 11.0847 9.61314C12.3642 8.5587 13.8056 7.80835 15.3284 7.40403C17.0473 6.9364 18.8334 6.93077 20.5545 7.38757" fill="white"/>
<path d="M16.5 3.13234C16.5 3.13234 15.2104 1.56969 14.8211 1.45443C12.4261 0.777986 7.25247 4.5071 3.94912 9.43396C2.6125 11.4274 0.699108 14.9576 1.61404 16.7733C1.93923 17.1809 2.30582 17.5503 2.70734 17.875C3.32036 16.9757 4.24296 16.3605 5.28077 16.1591C6.58324 12.3479 8.86956 8.98913 11.8858 6.4559C13.3332 5.21608 14.8766 4.10439 16.5 3.13234Z" fill="white"/>
<path d="M7.86113 22.1777C7.88021 22.2014 7.89185 22.2304 7.89452 22.261C7.89718 22.2916 7.89075 22.3223 7.87607 22.3491C7.80465 22.4678 7.70229 22.5638 7.58051 22.6261C7.45873 22.6885 7.32238 22.7147 7.18683 22.7019C6.94525 22.6752 6.72257 22.5556 6.56378 22.3671C6.40499 22.1787 6.32193 21.9355 6.3314 21.6867C6.3273 21.3476 6.38771 21.011 6.50924 20.6956C6.58596 20.498 6.59397 20.2793 6.53191 20.0763C6.46986 19.8734 6.34153 19.6985 6.16849 19.5811C6.06608 19.5116 5.95113 19.4639 5.83042 19.4408C5.70972 19.4176 5.58571 19.4195 5.46572 19.4462C5.34816 19.4716 5.23674 19.5208 5.138 19.5909C5.03926 19.661 4.9552 19.7506 4.89076 19.8545C4.79962 20.0145 4.72875 20.1856 4.67988 20.3639C4.67045 20.3953 4.66284 20.4199 4.65708 20.4359C4.577 20.6572 4.44934 20.7217 4.36285 20.7099C4.32196 20.7041 4.26573 20.676 4.22969 20.5747C4.18445 20.2819 4.20498 19.9823 4.28971 19.6988C4.37445 19.4153 4.52115 19.1553 4.71868 18.9386C4.88456 18.7561 5.09047 18.6166 5.31937 18.5318C5.54828 18.447 5.7936 18.4192 6.03505 18.4508C6.29084 18.4868 6.53391 18.5873 6.74251 18.7432C6.95111 18.8992 7.11872 19.1057 7.23033 19.3442C7.34336 19.6375 7.38897 19.9535 7.36363 20.2677C7.33828 20.5819 7.24267 20.8859 7.08419 21.1562C7.06414 21.2021 7.04579 21.2443 7.03032 21.2824C6.97334 21.3879 6.94205 21.506 6.9391 21.6266C6.93616 21.7472 6.96166 21.8667 7.01342 21.9751C7.05718 22.0397 7.1159 22.0922 7.18431 22.1278C7.25272 22.1634 7.32869 22.1811 7.40542 22.1793C7.47775 22.1783 7.54966 22.1678 7.61944 22.1483C7.71027 22.1265 7.80411 22.1041 7.86112 22.1777L7.86113 22.1777ZM30.25 22.7505C30.1992 23.8189 29.979 24.8716 29.5978 25.8674C27.6965 30.5505 23.1591 33.1576 17.7537 32.9926C12.7147 32.8388 8.41695 30.1055 6.53597 25.6501C5.34852 25.6161 4.21254 25.1459 3.33507 24.3253C2.42864 23.5335 1.84625 22.421 1.70374 21.2091C1.61177 20.3754 1.71239 19.5312 1.99748 18.7447L0.941116 17.8248C-3.89241 13.6298 11.2256 -3.64272 16.0609 0.692395C16.0853 0.714218 17.7058 2.34859 17.7098 2.35261C17.7163 2.34925 18.6039 1.96235 18.6084 1.96046C22.8494 0.155291 26.2908 1.02689 26.2951 3.9071C26.2974 5.40498 25.3688 7.15088 23.8814 8.73567C24.4758 9.35568 24.8967 10.128 25.1 10.9719C25.264 11.5607 25.3526 12.1687 25.3637 12.7809C25.3895 13.3913 25.4181 14.8133 25.4209 14.8386C25.4587 14.8503 25.8881 14.9715 26.0182 15.009C26.8835 15.2035 27.6887 15.6135 28.3626 16.2026C28.7184 16.5591 28.9514 17.0244 29.0264 17.5285C29.1181 18.1825 28.9589 18.8474 28.5821 19.3836C28.6802 19.6127 28.7652 19.8474 28.8369 20.0866C28.9621 20.4991 29.0532 20.8414 29.0672 20.8922C29.5273 20.8921 30.25 21.4367 30.25 22.7505L30.25 22.7505ZM8.88943 20.1807C8.56073 17.9939 7.12155 17.2232 6.14502 17.1682C5.89989 17.1549 5.6541 17.1729 5.4133 17.2217C3.67033 17.5831 2.68593 19.1072 2.87963 21.0875C3.0207 21.9758 3.44994 22.7893 4.09798 23.3967C4.74601 24.0041 5.57498 24.3699 6.45091 24.4348C6.61854 24.4394 6.78621 24.4273 6.95156 24.3987C8.71813 24.0891 9.18064 22.1174 8.88943 20.1807ZM11.8686 6.29881C13.345 5.05493 14.92 3.93923 16.5772 2.96327C16.5772 2.96327 15.2613 1.39505 14.864 1.27948C12.4199 0.600384 7.14029 4.34301 3.76941 9.28758C2.40546 11.2882 0.452914 14.8312 1.38646 16.6534C1.71811 17.0623 2.09222 17.4331 2.50218 17.7591C3.12632 16.8576 4.06807 16.24 5.12838 16.037C6.45492 12.2157 8.78778 8.84513 11.8686 6.29881ZM17.1805 23.6041C17.2452 23.8947 17.3854 24.162 17.5862 24.3778C17.787 24.5935 18.0409 24.7496 18.3211 24.8297C18.6126 24.941 18.9134 25.025 19.2197 25.0805C23.0857 25.7641 26.7 23.492 27.5138 22.9197C27.5748 22.8768 27.6152 22.9187 27.5662 22.9945C27.5417 23.0349 27.5151 23.0739 27.4865 23.1113C26.4906 24.4318 23.8131 25.9609 20.3297 25.9604C18.8104 25.9601 17.2919 25.4099 16.7344 24.5646C15.8694 23.2529 16.6915 21.3383 18.1328 21.5378C18.1345 21.5381 18.626 21.5954 18.7642 21.6111C21.0046 21.8319 23.2629 21.4604 25.3234 20.5322C27.2899 19.5939 28.0327 18.5613 27.9213 17.7254C27.884 17.4658 27.765 17.2258 27.5822 17.042C27.0445 16.5884 26.406 16.2776 25.7231 16.1369C25.4108 16.0468 25.1989 15.9892 24.9706 15.9119C24.5647 15.7745 24.364 15.6639 24.3186 14.8793C24.2988 14.5362 24.2406 13.3409 24.2195 12.8469C24.1824 11.9813 24.0812 10.7983 23.3669 10.3098C23.1851 10.1872 22.974 10.1178 22.7565 10.1092C22.6345 10.1016 22.5121 10.1139 22.3939 10.1457C22.0321 10.2315 21.7024 10.4231 21.4448 10.6972C21.111 11.0064 20.7185 11.2416 20.2918 11.388C19.8651 11.5344 19.4136 11.5888 18.9654 11.548C18.4656 11.5265 17.936 11.4465 17.329 11.4095C17.2109 11.4023 17.0923 11.3948 16.9739 11.3886C16.1923 11.4096 15.444 11.7176 14.8653 12.2564C14.2865 12.7953 13.9159 13.5292 13.8208 14.3245C13.4733 16.7827 15.2051 18.0529 15.7051 18.7983C15.7824 18.8932 15.8303 19.0096 15.8427 19.1325C15.8295 19.2689 15.7658 19.3948 15.6647 19.4845V19.4853C14.9732 20.2749 14.4871 21.2304 14.2515 22.2636C14.016 23.2967 14.0385 24.3741 14.317 25.3959C14.3831 25.6413 14.4678 25.881 14.5704 26.1129C15.8341 29.1483 19.7542 30.5617 23.5841 29.276C24.0856 29.1077 24.5723 28.8964 25.0391 28.6444C25.8778 28.2184 26.633 27.6382 27.2673 26.9327C28.2537 25.9169 28.9027 24.6085 29.1223 23.1932C29.2376 22.4108 29.0689 22.1082 28.8387 21.9626C28.676 21.8697 28.488 21.8344 28.3037 21.8621C28.2062 21.2477 28.0351 20.6479 27.7943 20.0765C26.7005 20.9222 25.464 21.5544 24.1467 21.9412C22.5619 22.4001 20.9131 22.5833 19.2691 22.4833C18.2114 22.3955 17.5117 22.0781 17.2485 22.9572C18.8484 23.5055 20.547 23.6831 22.222 23.4772C22.2338 23.476 22.2457 23.4771 22.257 23.4806C22.2684 23.4841 22.2789 23.4899 22.2881 23.4976C22.2973 23.5053 22.3049 23.5147 22.3105 23.5254C22.3161 23.5361 22.3195 23.5479 22.3207 23.5599C22.3225 23.5802 22.318 23.6006 22.308 23.6182C22.298 23.6358 22.2829 23.6498 22.2649 23.6583C22.2649 23.6583 20.3004 24.5958 17.1805 23.6041ZM11.427 9.34955C12.7264 8.41474 14.1915 7.74912 15.74 7.39012C17.4868 6.97529 19.3025 6.97027 21.0515 7.37544C21.1127 7.38985 21.1517 7.28087 21.097 7.24936C20.1894 6.7651 19.1875 6.49518 18.1649 6.4594C18.155 6.45921 18.1454 6.45625 18.1371 6.45083C18.1288 6.44541 18.1221 6.43775 18.1177 6.42868C18.1134 6.41961 18.1116 6.40949 18.1125 6.39944C18.1134 6.38939 18.117 6.37979 18.1229 6.3717C18.2818 6.15803 18.4673 5.96667 18.6748 5.80253C18.6841 5.7951 18.6909 5.78481 18.6941 5.77318C18.6973 5.76155 18.6968 5.74917 18.6926 5.73786C18.6885 5.72654 18.6809 5.71687 18.6711 5.71026C18.6612 5.70365 18.6495 5.70044 18.6377 5.70109C17.3854 5.82797 16.1819 6.26472 15.1308 6.97377C15.1218 6.98 15.1112 6.98332 15.1004 6.98329C15.0895 6.98326 15.0789 6.97989 15.07 6.97361C15.061 6.96734 15.0541 6.95844 15.0502 6.94809C15.0462 6.93774 15.0454 6.92641 15.0478 6.91557C15.1325 6.59041 15.2572 6.27761 15.4189 5.9847C15.4242 5.97468 15.4263 5.96316 15.4248 5.95184C15.4233 5.94052 15.4183 5.92999 15.4105 5.9218C15.4028 5.91361 15.3926 5.90819 15.3816 5.90635C15.3706 5.9045 15.3593 5.90632 15.3494 5.91155C13.8293 6.77139 12.4753 7.90875 11.3543 9.26755C11.3455 9.27786 11.3407 9.29111 11.3409 9.30479C11.341 9.31848 11.346 9.33163 11.355 9.34176C11.364 9.35188 11.3763 9.35827 11.3896 9.35971C11.4028 9.36114 11.4162 9.35753 11.427 9.34955ZM21.6077 17.6936C21.7136 17.7623 21.8403 17.7886 21.9639 17.7675C22.0874 17.7465 22.1991 17.6796 22.2775 17.5795C22.375 17.3861 22.2335 17.1238 21.9611 16.9935C21.8553 16.9249 21.7285 16.8986 21.605 16.9197C21.4814 16.9408 21.3698 17.0077 21.2914 17.1078C21.1937 17.3011 21.3354 17.5634 21.6077 17.6936ZM22.443 14.5572C22.5083 14.9054 22.6492 15.2341 22.8554 15.519C23.0683 15.4921 23.2837 15.4921 23.4967 15.519C23.6212 15.1367 23.6321 14.7252 23.528 14.3366C23.3741 13.6196 23.1658 13.1856 22.7353 13.2531C22.3051 13.3207 22.2892 13.8402 22.443 14.5572ZM23.3586 16.2043C23.2501 16.1724 23.1345 16.1761 23.0281 16.215C22.9218 16.2538 22.8299 16.3259 22.7656 16.4209C22.7012 16.516 22.6676 16.6294 22.6693 16.7451C22.671 16.8608 22.7081 16.973 22.7753 17.0661C22.8425 17.159 22.9365 17.2281 23.044 17.2636C23.1515 17.2991 23.2671 17.2991 23.3746 17.2638C23.4822 17.2284 23.5762 17.1594 23.6435 17.0665C23.7108 16.9736 23.748 16.8614 23.7498 16.7457C23.7655 16.6211 23.7334 16.4952 23.6605 16.3943C23.5876 16.2934 23.4794 16.2253 23.3586 16.2043Z" fill="black"/>
<path d="M16.5942 15.8049C16.5349 15.7979 16.5097 15.7767 16.5022 15.7485C16.4792 15.661 16.6395 15.517 16.8085 15.4131C17.0552 15.2617 17.3441 15.1662 17.6475 15.1356C17.9509 15.1051 18.2586 15.1405 18.5409 15.2386C18.8047 15.3299 19.0316 15.4831 19.1943 15.6798C19.2547 15.7626 19.2664 15.8267 19.2273 15.8603C19.1665 15.9142 19.0112 15.8525 18.7586 15.7595C18.455 15.6345 18.1196 15.5739 17.7816 15.5829C17.3812 15.6382 16.9848 15.7123 16.5942 15.8049ZM19.1128 16.24C19.0037 16.1437 18.8677 16.0716 18.7172 16.0302C18.5666 15.9888 18.4062 15.9794 18.2503 16.0028C18.0203 16.0233 17.8024 16.0995 17.6232 16.2221C17.5396 16.2724 17.4822 16.3477 17.4627 16.4324C17.4622 16.4418 17.4643 16.4512 17.4686 16.4599C17.473 16.4686 17.4795 16.4764 17.4878 16.4827C17.5027 16.494 17.522 16.5002 17.542 16.5C17.6248 16.4898 17.7057 16.471 17.7828 16.444C18.1207 16.3371 18.4857 16.3053 18.8425 16.3516C19.0078 16.3672 19.0859 16.3759 19.1222 16.3283C19.1315 16.3145 19.1356 16.2987 19.1339 16.2829C19.1322 16.2672 19.1249 16.2522 19.1128 16.24Z" fill="black"/>
</g>
<defs>
<clipPath id="clip0_0_66">
<rect width="30.7291" height="32.7778" fill="white" transform="scale(1.00678)"/>
</clipPath>
</defs>
</svg>
