<svg width="33" height="33" viewBox="0 0 33 33" fill="none" xmlns="http://www.w3.org/2000/svg">
<g clip-path="url(#clip0_0_116)">
<g clip-path="url(#clip1_0_116)">
<path d="M13.7326 6.69761C14.7969 5.56606 16.2786 4.86425 17.9173 4.86425C20.0957 4.86425 21.9963 6.10373 23.0084 7.94377C23.8879 7.54279 24.8615 7.31971 25.8858 7.31971C29.8147 7.31971 33 10.5983 33 14.6425C33 18.6871 29.8147 21.9657 25.8858 21.9657C25.4152 21.966 24.9457 21.9183 24.4844 21.8233C23.5932 23.4455 21.8947 24.5416 19.9453 24.5416C19.1292 24.5416 18.3573 24.3493 17.6701 24.0073C16.7666 26.1759 14.6615 27.6964 12.2081 27.6964C9.65324 27.6964 7.4758 26.0468 6.64 23.7333C6.27475 23.8125 5.89633 23.8538 5.50802 23.8538C2.46611 23.8538 3.07245e-05 21.3115 3.07245e-05 18.1749C3.07245e-05 16.0729 1.10802 14.2376 2.75426 13.2557C2.41534 12.46 2.22682 11.5817 2.22682 10.6583C2.22682 7.0511 5.09669 4.127 8.63645 4.127C10.7147 4.127 12.5617 5.13529 13.7326 6.69761Z" fill="#00A1E0"/>
<path d="M4.77973 16.3486C4.75906 16.4038 4.78727 16.4153 4.79384 16.4249C4.85588 16.4709 4.9189 16.504 4.98236 16.5409C5.31893 16.7232 5.63674 16.7764 5.96909 16.7764C6.646 16.7764 7.06624 16.409 7.06624 15.8175V15.8061C7.06624 15.2592 6.59196 15.0606 6.14677 14.9172L6.08896 14.898C5.75331 14.7867 5.46375 14.6908 5.46375 14.4653V14.4534C5.46375 14.2605 5.63298 14.1185 5.89529 14.1185C6.18674 14.1185 6.53273 14.2174 6.75553 14.343C6.75553 14.343 6.82087 14.3862 6.84486 14.3214C6.858 14.2869 6.97084 13.977 6.9826 13.9435C6.99529 13.907 6.97273 13.8801 6.9497 13.8657C6.69538 13.7079 6.34375 13.6 5.97992 13.6L5.91224 13.6004C5.29267 13.6004 4.8602 13.9823 4.8602 14.5296V14.5411C4.8602 15.1182 5.33733 15.3052 5.7844 15.4357L5.85631 15.4583C6.18208 15.5604 6.46273 15.6482 6.46273 15.8823V15.8938C6.46273 16.1078 6.28036 16.267 5.98607 16.267C5.87184 16.267 5.50752 16.2646 5.11406 16.0108C5.06656 15.9825 5.03884 15.9619 5.00218 15.9394C4.98292 15.9269 4.93449 15.9053 4.91335 15.9705L4.77973 16.3486ZM14.6896 16.3486C14.6689 16.4038 14.6971 16.4153 14.7037 16.4249C14.7657 16.4709 14.8287 16.504 14.8921 16.5409C15.2287 16.7232 15.5466 16.7764 15.8789 16.7764C16.5558 16.7764 16.9761 16.409 16.9761 15.8175V15.8061C16.9761 15.2592 16.5017 15.0606 16.0566 14.9172L15.9987 14.898C15.6631 14.7867 15.3735 14.6908 15.3735 14.4653V14.4534C15.3735 14.2605 15.5427 14.1185 15.805 14.1185C16.0965 14.1185 16.4425 14.2174 16.6653 14.343C16.6653 14.343 16.7307 14.3862 16.7546 14.3214C16.7678 14.2869 16.8806 13.977 16.8924 13.9435C16.9051 13.907 16.8825 13.8801 16.8595 13.8657C16.6051 13.7079 16.2535 13.6 15.8897 13.6L15.822 13.6004C15.2024 13.6004 14.7699 13.9823 14.7699 14.5296V14.5411C14.7699 15.1182 15.2471 15.3052 15.6941 15.4357L15.766 15.4583C16.0918 15.5604 16.3729 15.6482 16.3729 15.8823V15.8938C16.3729 16.1078 16.1901 16.267 15.8958 16.267C15.7816 16.267 15.4173 16.2646 15.0238 16.0108C14.9763 15.9825 14.9481 15.9629 14.9124 15.9394C14.9002 15.9312 14.8428 15.9087 14.8231 15.9705L14.6896 16.3486ZM21.4547 15.1901C21.4547 15.5244 21.3936 15.7877 21.2733 15.9738C21.1543 16.1581 20.9743 16.2478 20.7233 16.2478C20.4718 16.2478 20.2927 16.1585 20.1757 15.9738C20.0572 15.7882 19.9971 15.5244 19.9971 15.1901C19.9971 14.8562 20.0572 14.5933 20.1757 14.4091C20.2927 14.2269 20.4718 14.1381 20.7233 14.1381C20.9743 14.1381 21.1544 14.2269 21.2738 14.4091C21.3937 14.5933 21.4547 14.8562 21.4547 15.1901ZM22.0198 14.5703C21.9643 14.3789 21.8778 14.21 21.7627 14.0695C21.6475 13.9285 21.5018 13.8153 21.3288 13.7328C21.1562 13.6508 20.9522 13.609 20.7233 13.609C20.4939 13.609 20.2899 13.6508 20.1174 13.7328C19.9444 13.8153 19.7987 13.9285 19.683 14.0695C19.5683 14.2106 19.4818 14.3794 19.4259 14.5703C19.3709 14.7607 19.3431 14.9689 19.3431 15.1901C19.3431 15.4112 19.3709 15.6199 19.4259 15.8098C19.4818 16.0007 19.5679 16.1696 19.6835 16.3106C19.7987 16.4516 19.9449 16.5643 20.1174 16.6444C20.2904 16.7245 20.4939 16.7653 20.7234 16.7653C20.9523 16.7653 21.1558 16.7245 21.3288 16.6444C21.5013 16.5643 21.6475 16.4516 21.7627 16.3106C21.8779 16.17 21.9643 16.0012 22.0198 15.8098C22.0753 15.6194 22.103 15.4107 22.103 15.1901C22.103 14.9694 22.0753 14.7607 22.0198 14.5703ZM26.6598 16.1585C26.641 16.1023 26.5879 16.1234 26.5879 16.1234C26.5057 16.1556 26.4182 16.1853 26.3251 16.2002C26.2306 16.215 26.1268 16.2227 26.0153 16.2227C25.7418 16.2227 25.5246 16.1398 25.369 15.9757C25.2129 15.8116 25.1255 15.5464 25.1264 15.1876C25.1274 14.8609 25.2044 14.6153 25.3431 14.4283C25.4809 14.2422 25.6906 14.1467 25.9702 14.1467C26.2034 14.1467 26.3811 14.174 26.5672 14.234C26.5672 14.234 26.6119 14.2536 26.633 14.1942C26.6824 14.0541 26.719 13.9538 26.7717 13.7999C26.7867 13.7562 26.7501 13.7375 26.7369 13.7322C26.6636 13.703 26.4906 13.6555 26.3599 13.6353C26.2377 13.6162 26.0948 13.6061 25.9359 13.6061C25.6984 13.6061 25.4869 13.6473 25.306 13.7299C25.1255 13.8119 24.9722 13.9251 24.851 14.0661C24.7297 14.2071 24.6375 14.376 24.576 14.5669C24.5148 14.7573 24.4838 14.9664 24.4838 15.1876C24.4838 15.6658 24.6103 16.0524 24.8599 16.3355C25.11 16.6194 25.4856 16.7638 25.9754 16.7638C26.265 16.7638 26.5621 16.7039 26.7755 16.618C26.7755 16.618 26.8164 16.5978 26.7985 16.5494L26.6598 16.1585ZM27.6485 14.8698C27.6753 14.6841 27.7256 14.5297 27.8031 14.4093C27.9202 14.2265 28.0988 14.1263 28.3499 14.1263C28.6009 14.1263 28.7668 14.227 28.8858 14.4093C28.9647 14.5297 28.9991 14.6909 29.0127 14.8698H27.6485ZM29.5509 14.4615C29.503 14.2769 29.384 14.0903 29.306 14.0049C29.1828 13.8696 29.0625 13.7751 28.9431 13.7223C28.787 13.6542 28.5999 13.6091 28.395 13.6091C28.1562 13.6091 27.9395 13.6499 27.7637 13.7343C27.5874 13.8188 27.4394 13.9339 27.3232 14.0773C27.2071 14.2203 27.1197 14.3905 27.0642 14.5839C27.0082 14.7762 26.98 14.9859 26.98 15.2069C26.98 15.4319 27.0092 15.6416 27.067 15.8301C27.1253 16.02 27.2184 16.1874 27.3443 16.326C27.4698 16.4656 27.6316 16.575 27.8252 16.6512C28.0175 16.727 28.2512 16.7664 28.5196 16.7659C29.0719 16.7639 29.3629 16.6383 29.4828 16.5706C29.5039 16.5587 29.5242 16.5376 29.4987 16.4771L29.3737 16.1197C29.3549 16.0665 29.3018 16.0862 29.3018 16.0862C29.165 16.138 28.9704 16.231 28.5167 16.2301C28.2201 16.2296 28.0001 16.1404 27.8623 16.0008C27.7209 15.8579 27.6518 15.6477 27.6395 15.3513L29.5523 15.3532C29.5523 15.3532 29.6026 15.3523 29.6078 15.3024C29.6097 15.2813 29.6736 14.9014 29.5509 14.4615ZM12.3299 14.8698C12.3572 14.6841 12.407 14.5297 12.4846 14.4093C12.6016 14.2265 12.7803 14.1263 13.0313 14.1263C13.2823 14.1263 13.4483 14.227 13.5677 14.4093C13.6461 14.5297 13.6805 14.6909 13.6941 14.8698H12.3299ZM14.2319 14.4615C14.184 14.2769 14.0655 14.0903 13.9875 14.0049C13.8643 13.8696 13.744 13.7751 13.6246 13.7223C13.4685 13.6542 13.2814 13.6091 13.0765 13.6091C12.8381 13.6091 12.6209 13.6499 12.4451 13.7343C12.2689 13.8188 12.1208 13.9339 12.0047 14.0773C11.8886 14.2203 11.8011 14.3905 11.7457 14.5839C11.6902 14.7762 11.6615 14.9859 11.6615 15.2069C11.6615 15.4319 11.6907 15.6416 11.7485 15.8301C11.8068 16.02 11.8999 16.1874 12.0258 16.326C12.1514 16.4656 12.3131 16.575 12.5067 16.6512C12.699 16.727 12.9326 16.7664 13.2011 16.7659C13.7534 16.7639 14.0444 16.6383 14.1643 16.5706C14.1854 16.5587 14.2056 16.5376 14.1803 16.4771L14.0557 16.1197C14.0364 16.0665 13.9833 16.0862 13.9833 16.0862C13.8465 16.138 13.6524 16.231 13.1978 16.2301C12.9016 16.2296 12.6816 16.1404 12.5439 16.0008C12.4024 15.8579 12.3333 15.6477 12.3211 15.3513L14.2338 15.3532C14.2338 15.3532 14.2841 15.3523 14.2893 15.3024C14.2911 15.2813 14.355 14.9014 14.2319 14.4615ZM8.19551 16.1478C8.12075 16.0868 8.11041 16.0715 8.08505 16.0322C8.04742 15.9722 8.02816 15.8868 8.02816 15.7784C8.02816 15.6067 8.08362 15.4834 8.19881 15.4004C8.19742 15.4009 8.36335 15.2541 8.7535 15.2594C9.02754 15.2632 9.27245 15.3045 9.27245 15.3045V16.1919H9.27291C9.27291 16.1919 9.02989 16.2451 8.75631 16.2619C8.36708 16.2859 8.19409 16.1473 8.19551 16.1478ZM8.95655 14.7764C8.87899 14.7706 8.77837 14.7672 8.65803 14.7672C8.49399 14.7672 8.33557 14.7883 8.18702 14.8291C8.03754 14.8699 7.9031 14.9337 7.78745 15.0181C7.67198 15.1022 7.57707 15.2123 7.51011 15.3399C7.44242 15.4685 7.4081 15.6201 7.4081 15.7899C7.4081 15.9626 7.43724 16.1127 7.49554 16.2356C7.55384 16.3588 7.63798 16.4615 7.74514 16.5406C7.85137 16.6198 7.98254 16.6778 8.13483 16.7128C8.2848 16.7478 8.45495 16.7656 8.64112 16.7656C8.83714 16.7656 9.03269 16.7493 9.22214 16.7162C9.4097 16.6835 9.64004 16.636 9.70396 16.6212C9.74878 16.6102 9.79344 16.5985 9.83794 16.5862C9.88544 16.5742 9.88167 16.5224 9.88167 16.5224L9.88072 14.7375C9.88072 14.3461 9.77825 14.0558 9.57658 13.876C9.37584 13.6966 9.08016 13.6059 8.698 13.6059C8.55461 13.6059 8.32381 13.6261 8.1856 13.6543C8.1856 13.6543 7.7677 13.7369 7.59563 13.8741C7.59563 13.8741 7.55804 13.8981 7.57872 13.9518L7.71412 14.3231C7.73103 14.371 7.77665 14.3547 7.77665 14.3547C7.77665 14.3547 7.79122 14.349 7.80816 14.3389C8.17625 14.1345 8.64162 14.1408 8.64162 14.1408C8.84847 14.1408 9.00736 14.183 9.11452 14.2669C9.21887 14.3484 9.27198 14.4717 9.27198 14.7317V14.8142C9.10745 14.7903 8.95655 14.7764 8.95655 14.7764ZM24.3839 13.7707C24.3984 13.7265 24.3679 13.7054 24.3552 13.7006C24.3228 13.6877 24.1601 13.6527 24.0346 13.6445C23.7944 13.6296 23.6609 13.6709 23.5415 13.7256C23.423 13.7802 23.2914 13.8685 23.2181 13.9688V13.7313C23.2181 13.6982 23.195 13.6718 23.1631 13.6718H22.6728C22.6408 13.6718 22.6178 13.6982 22.6178 13.7313V16.6425C22.6178 16.6751 22.6441 16.702 22.6761 16.702H23.1786C23.194 16.7019 23.2087 16.6956 23.2196 16.6844C23.2304 16.6733 23.2364 16.6582 23.2364 16.6425V15.1881C23.2364 14.9929 23.2576 14.7982 23.2999 14.6758C23.3412 14.5549 23.3977 14.4581 23.4672 14.3885C23.5373 14.3194 23.6167 14.271 23.7037 14.2437C23.7925 14.2158 23.8908 14.2067 23.9604 14.2067C24.0605 14.2067 24.1705 14.2331 24.1705 14.2331C24.2071 14.2374 24.2278 14.2144 24.24 14.1803C24.2729 14.0911 24.366 13.8239 24.3839 13.7707Z" fill="white"/>
<path d="M19.667 12.4215C19.6059 12.4023 19.5505 12.3893 19.478 12.3754C19.4047 12.362 19.3173 12.3553 19.2181 12.3553C18.8721 12.3553 18.5994 12.455 18.4081 12.6517C18.2177 12.8474 18.0884 13.1453 18.0236 13.5372L18 13.6691H17.5657C17.5657 13.6691 17.5131 13.6672 17.5018 13.7257L17.4308 14.132C17.4256 14.1704 17.4421 14.1949 17.4929 14.1949H17.9155L17.4867 16.6374C17.4533 16.8341 17.4148 16.9957 17.372 17.1185C17.3302 17.2394 17.2893 17.33 17.2385 17.3962C17.1896 17.4596 17.1436 17.5066 17.0636 17.5339C16.9978 17.5565 16.9217 17.567 16.8385 17.567C16.7924 17.567 16.7309 17.5593 16.6852 17.5497C16.6401 17.5406 16.6161 17.5305 16.5818 17.5156C16.5818 17.5156 16.5325 17.4965 16.5127 17.5469C16.4972 17.5886 16.3844 17.9047 16.3707 17.9436C16.3576 17.9824 16.3764 18.0126 16.4003 18.0217C16.4567 18.0419 16.4986 18.0553 16.5752 18.074C16.6815 18.0995 16.7712 18.1009 16.8554 18.1009C17.0312 18.1009 17.1919 18.0755 17.325 18.0265C17.4585 17.9771 17.575 17.8912 17.6785 17.7752C17.7899 17.6495 17.8599 17.5181 17.9267 17.3382C17.993 17.1607 18.0499 16.9401 18.095 16.683L18.5261 14.1949H19.156C19.156 14.1949 19.2091 14.1968 19.2199 14.1378L19.2913 13.732C19.2961 13.6931 19.2801 13.6691 19.2288 13.6691H18.6172C18.6205 13.6553 18.6483 13.4355 18.7183 13.2288C18.7484 13.1411 18.8048 13.0696 18.8523 13.0206C18.8993 12.9727 18.9534 12.9386 19.0126 12.9189C19.0733 12.8988 19.1424 12.8892 19.2181 12.8892C19.2754 12.8892 19.3323 12.8959 19.375 12.905C19.4343 12.918 19.4573 12.9247 19.4729 12.9295C19.5354 12.9487 19.5438 12.93 19.5561 12.8993L19.7023 12.4897C19.7173 12.4454 19.6802 12.4267 19.667 12.4215ZM11.122 16.6427C11.122 16.6753 11.099 16.7017 11.067 16.7017H10.5598C10.5278 16.7017 10.5053 16.6753 10.5053 16.6427V12.4771C10.5053 12.4445 10.5278 12.4181 10.5598 12.4181H11.067C11.099 12.4181 11.122 12.4445 11.122 12.4771V16.6427Z" fill="white"/>
</g>
</g>
<defs>
<clipPath id="clip0_0_116">
<rect width="32.7778" height="32.7778" fill="white" transform="scale(1.00678)"/>
</clipPath>
<clipPath id="clip1_0_116">
<rect width="32.7778" height="23.4127" fill="white" transform="translate(0 4.12501) scale(1.00678)"/>
</clipPath>
</defs>
</svg>
