<svg width="65" height="35" viewBox="0 0 65 35" fill="none" xmlns="http://www.w3.org/2000/svg">
<rect x="0.5" y="0.5" width="64" height="33.5172" rx="16.6111" fill="white"/>
<rect x="0.5" y="0.5" width="64" height="33.5172" rx="16.6111" stroke="#D4D4D8"/>
<rect x="2.51724" y="2.51724" width="29.4828" height="29.4828" rx="14.6111" fill="#6B21A8"/>
<rect x="2.51724" y="2.51724" width="29.4828" height="29.4828" rx="14.6111" stroke="#E9D5FF"/>
<path d="M14.1207 13.4483C14.1207 13.5813 14.0813 13.7113 14.0074 13.8219C13.9335 13.9324 13.8285 14.0186 13.7056 14.0695C13.5827 14.1204 13.4475 14.1337 13.3171 14.1078C13.1867 14.0818 13.0669 14.0178 12.9728 13.9238C12.8788 13.8297 12.8147 13.7099 12.7888 13.5795C12.7629 13.449 12.7762 13.3138 12.8271 13.191C12.878 13.0681 12.9641 12.9631 13.0747 12.8892C13.1853 12.8153 13.3153 12.7759 13.4483 12.7759C13.6266 12.7759 13.7977 12.8467 13.9238 12.9728C14.0499 13.0989 14.1207 13.27 14.1207 13.4483ZM17.2586 12.7759C17.1256 12.7759 16.9956 12.8153 16.8851 12.8892C16.7745 12.9631 16.6883 13.0681 16.6374 13.191C16.5865 13.3138 16.5732 13.449 16.5991 13.5795C16.6251 13.7099 16.6891 13.8297 16.7832 13.9238C16.8772 14.0178 16.997 14.0818 17.1275 14.1078C17.2579 14.1337 17.3931 14.1204 17.516 14.0695C17.6388 14.0186 17.7438 13.9324 17.8177 13.8219C17.8916 13.7113 17.9311 13.5813 17.9311 13.4483C17.9311 13.27 17.8602 13.0989 17.7341 12.9728C17.608 12.8467 17.437 12.7759 17.2586 12.7759ZM21.069 14.1207C21.202 14.1207 21.332 14.0813 21.4426 14.0074C21.5531 13.9335 21.6393 13.8285 21.6902 13.7056C21.7411 13.5827 21.7544 13.4475 21.7285 13.3171C21.7025 13.1867 21.6385 13.0669 21.5444 12.9728C21.4504 12.8788 21.3306 12.8147 21.2002 12.7888C21.0697 12.7629 20.9345 12.7762 20.8117 12.8271C20.6888 12.878 20.5838 12.9641 20.5099 13.0747C20.436 13.1853 20.3966 13.3153 20.3966 13.4483C20.3966 13.6266 20.4674 13.7977 20.5935 13.9238C20.7196 14.0499 20.8906 14.1207 21.069 14.1207ZM13.4483 16.5862C13.3153 16.5862 13.1853 16.6257 13.0747 16.6995C12.9641 16.7734 12.878 16.8784 12.8271 17.0013C12.7762 17.1242 12.7629 17.2594 12.7888 17.3898C12.8147 17.5203 12.8788 17.6401 12.9728 17.7341C13.0669 17.8281 13.1867 17.8922 13.3171 17.9181C13.4475 17.9441 13.5827 17.9308 13.7056 17.8799C13.8285 17.829 13.9335 17.7428 14.0074 17.6322C14.0813 17.5216 14.1207 17.3916 14.1207 17.2586C14.1207 17.0803 14.0499 16.9093 13.9238 16.7832C13.7977 16.6571 13.6266 16.5862 13.4483 16.5862ZM17.2586 16.5862C17.1256 16.5862 16.9956 16.6257 16.8851 16.6995C16.7745 16.7734 16.6883 16.8784 16.6374 17.0013C16.5865 17.1242 16.5732 17.2594 16.5991 17.3898C16.6251 17.5203 16.6891 17.6401 16.7832 17.7341C16.8772 17.8281 16.997 17.8922 17.1275 17.9181C17.2579 17.9441 17.3931 17.9308 17.516 17.8799C17.6388 17.829 17.7438 17.7428 17.8177 17.6322C17.8916 17.5216 17.9311 17.3916 17.9311 17.2586C17.9311 17.0803 17.8602 16.9093 17.7341 16.7832C17.608 16.6571 17.437 16.5862 17.2586 16.5862ZM21.069 16.5862C20.936 16.5862 20.806 16.6257 20.6954 16.6995C20.5848 16.7734 20.4986 16.8784 20.4478 17.0013C20.3969 17.1242 20.3835 17.2594 20.4095 17.3898C20.4354 17.5203 20.4995 17.6401 20.5935 17.7341C20.6876 17.8281 20.8074 17.8922 20.9378 17.9181C21.0682 17.9441 21.2034 17.9308 21.3263 17.8799C21.4492 17.829 21.5542 17.7428 21.6281 17.6322C21.702 17.5216 21.7414 17.3916 21.7414 17.2586C21.7414 17.0803 21.6706 16.9093 21.5444 16.7832C21.4183 16.6571 21.2473 16.5862 21.069 16.5862ZM13.4483 20.3966C13.3153 20.3966 13.1853 20.436 13.0747 20.5099C12.9641 20.5838 12.878 20.6888 12.8271 20.8117C12.7762 20.9345 12.7629 21.0697 12.7888 21.2002C12.8147 21.3306 12.8788 21.4504 12.9728 21.5444C13.0669 21.6385 13.1867 21.7025 13.3171 21.7285C13.4475 21.7544 13.5827 21.7411 13.7056 21.6902C13.8285 21.6393 13.9335 21.5531 14.0074 21.4426C14.0813 21.332 14.1207 21.202 14.1207 21.069C14.1207 20.8906 14.0499 20.7196 13.9238 20.5935C13.7977 20.4674 13.6266 20.3966 13.4483 20.3966ZM17.2586 20.3966C17.1256 20.3966 16.9956 20.436 16.8851 20.5099C16.7745 20.5838 16.6883 20.6888 16.6374 20.8117C16.5865 20.9345 16.5732 21.0697 16.5991 21.2002C16.6251 21.3306 16.6891 21.4504 16.7832 21.5444C16.8772 21.6385 16.997 21.7025 17.1275 21.7285C17.2579 21.7544 17.3931 21.7411 17.516 21.6902C17.6388 21.6393 17.7438 21.5531 17.8177 21.4426C17.8916 21.332 17.9311 21.202 17.9311 21.069C17.9311 20.8906 17.8602 20.7196 17.7341 20.5935C17.608 20.4674 17.437 20.3966 17.2586 20.3966ZM21.069 20.3966C20.936 20.3966 20.806 20.436 20.6954 20.5099C20.5848 20.5838 20.4986 20.6888 20.4478 20.8117C20.3969 20.9345 20.3835 21.0697 20.4095 21.2002C20.4354 21.3306 20.4995 21.4504 20.5935 21.5444C20.6876 21.6385 20.8074 21.7025 20.9378 21.7285C21.0682 21.7544 21.2034 21.7411 21.3263 21.6902C21.4492 21.6393 21.5542 21.5531 21.6281 21.4426C21.702 21.332 21.7414 21.202 21.7414 21.069C21.7414 20.8906 21.6706 20.7196 21.5444 20.5935C21.4183 20.4674 21.2473 20.3966 21.069 20.3966Z" fill="white"/>
<path d="M53.1207 17.2586C53.1207 17.3775 53.0734 17.4915 52.9894 17.5756C52.9053 17.6596 52.7913 17.7069 52.6724 17.7069H42.8103C42.6914 17.7069 42.5774 17.6596 42.4934 17.5756C42.4093 17.4915 42.3621 17.3775 42.3621 17.2586C42.3621 17.1397 42.4093 17.0257 42.4934 16.9416C42.5774 16.8575 42.6914 16.8103 42.8103 16.8103H52.6724C52.7913 16.8103 52.9053 16.8575 52.9894 16.9416C53.0734 17.0257 53.1207 17.1397 53.1207 17.2586ZM42.8103 14.1207H52.6724C52.7913 14.1207 52.9053 14.0734 52.9894 13.9894C53.0734 13.9053 53.1207 13.7913 53.1207 13.6724C53.1207 13.5535 53.0734 13.4395 52.9894 13.3554C52.9053 13.2713 52.7913 13.2241 52.6724 13.2241H42.8103C42.6914 13.2241 42.5774 13.2713 42.4934 13.3554C42.4093 13.4395 42.3621 13.5535 42.3621 13.6724C42.3621 13.7913 42.4093 13.9053 42.4934 13.9894C42.5774 14.0734 42.6914 14.1207 42.8103 14.1207ZM52.6724 20.3965H42.8103C42.6914 20.3965 42.5774 20.4437 42.4934 20.5278C42.4093 20.6119 42.3621 20.7259 42.3621 20.8448C42.3621 20.9637 42.4093 21.0777 42.4934 21.1618C42.5774 21.2458 42.6914 21.2931 42.8103 21.2931H52.6724C52.7913 21.2931 52.9053 21.2458 52.9894 21.1618C53.0734 21.0777 53.1207 20.9637 53.1207 20.8448C53.1207 20.7259 53.0734 20.6119 52.9894 20.5278C52.9053 20.4437 52.7913 20.3965 52.6724 20.3965Z" fill="#1F2937"/>
</svg>
