<svg width="33" height="33" viewBox="0 0 33 33" fill="none" xmlns="http://www.w3.org/2000/svg">
<g clip-path="url(#clip0_0_94)">
<g clip-path="url(#clip1_0_94)">
<path d="M20.7209 15.9564L7.67442 13.6541V30.666C7.67442 31.4429 8.30422 32.0727 9.08113 32.0727H31.5933C32.3702 32.0727 33 31.4429 33 30.666V24.3983L20.7209 15.9564Z" fill="#185C37"/>
<path d="M20.7209 1.37501H9.08113C8.30422 1.37501 7.67442 2.00482 7.67442 2.78173V9.04943L20.7209 16.7238L27.6279 19.0262L33 16.7238V9.04943L20.7209 1.37501Z" fill="#21A366"/>
<path d="M7.67442 9.04944H20.7209V16.7239H7.67442V9.04944Z" fill="#107C41"/>
<path opacity="0.1" d="M17.0117 7.51453H7.67442V26.7006H17.0117C17.7876 26.698 18.4159 26.0697 18.4184 25.2939V8.92125C18.4159 8.14539 17.7876 7.51705 17.0117 7.51453Z" fill="black"/>
<path opacity="0.2" d="M16.2444 8.28197H7.67442V27.468H16.2444C17.0203 27.4655 17.6486 26.8371 17.6512 26.0613V9.68869C17.6486 8.91283 17.0203 8.28449 16.2444 8.28197Z" fill="black"/>
<path opacity="0.2" d="M16.2444 8.28197H7.67442V25.9331H16.2444C17.0203 25.9306 17.6486 25.3023 17.6512 24.5264V9.68869C17.6486 8.91283 17.0203 8.28449 16.2444 8.28197Z" fill="black"/>
<path opacity="0.2" d="M15.477 8.28197H7.67442V25.9331H15.477C16.2529 25.9306 16.8812 25.3023 16.8837 24.5264V9.68869C16.8812 8.91283 16.2529 8.28449 15.477 8.28197Z" fill="black"/>
<path d="M1.40672 8.28197H15.477C16.2539 8.28197 16.8837 8.91178 16.8837 9.68869V23.759C16.8837 24.5359 16.2539 25.1657 15.477 25.1657H1.40672C0.629807 25.1657 0 24.5359 0 23.759V9.68869C0 8.91178 0.629807 8.28197 1.40672 8.28197Z" fill="url(#paint0_linear_0_94)"/>
<path d="M4.35676 21.2963L7.31602 16.7108L4.60465 12.1506H6.78571L8.26534 15.0669C8.40195 15.344 8.49557 15.5496 8.54623 15.6855H8.56541C8.66262 15.4644 8.76495 15.2498 8.87239 15.0416L10.4541 12.1522H12.4563L9.67589 16.6855L12.527 21.2962H10.3965L8.68744 18.0953C8.60693 17.9591 8.53862 17.816 8.48331 17.6678H8.45798C8.40792 17.813 8.34149 17.952 8.25998 18.0822L6.50024 21.2963H4.35676Z" fill="white"/>
<path d="M31.5933 1.37501H20.7209V9.04943H33V2.78173C33 2.00482 32.3702 1.37501 31.5933 1.37501Z" fill="#33C481"/>
<path d="M20.7209 16.7238H33V24.3982H20.7209V16.7238Z" fill="#107C41"/>
</g>
</g>
<defs>
<linearGradient id="paint0_linear_0_94" x1="2.93304" y1="7.18279" x2="13.9507" y2="26.2649" gradientUnits="userSpaceOnUse">
<stop stop-color="#18884F"/>
<stop offset="0.5" stop-color="#117E43"/>
<stop offset="1" stop-color="#0B6631"/>
</linearGradient>
<clipPath id="clip0_0_94">
<rect width="32.7778" height="32.7778" fill="white" transform="scale(1.00678)"/>
</clipPath>
<clipPath id="clip1_0_94">
<rect width="32.7778" height="30.4909" fill="white" transform="translate(0 1.37501) scale(1.00678)"/>
</clipPath>
</defs>
</svg>
