<svg width="24" height="24" viewBox="0 0 24 24" fill="none" xmlns="http://www.w3.org/2000/svg">
<path d="M21.2587 6.46874C21.2133 6.3563 21.1412 6.25656 21.0487 6.1781C20.9562 6.09963 20.846 6.04477 20.7276 6.01822C20.6093 5.99167 20.4863 5.99423 20.3691 6.02567C20.2519 6.05711 20.1442 6.1165 20.055 6.19874L16.2769 9.6853L14.6616 9.33843L14.3147 7.72312L17.8012 3.94499C17.8835 3.85583 17.9429 3.74805 17.9743 3.63089C18.0058 3.51374 18.0083 3.39071 17.9818 3.27235C17.9552 3.15399 17.9004 3.04383 17.8219 2.95133C17.7434 2.85883 17.6437 2.78674 17.5312 2.74124C16.5065 2.32671 15.3956 2.17019 14.2962 2.28545C13.1968 2.4007 12.1426 2.78419 11.2261 3.40223C10.3096 4.02026 9.55889 4.85393 9.03997 5.82998C8.52105 6.80602 8.24978 7.89458 8.25 8.99999C8.24879 9.93344 8.44028 10.8571 8.8125 11.7131L3.16781 16.5937C3.15375 16.605 3.14062 16.6181 3.1275 16.6303C2.56482 17.193 2.24872 17.9561 2.24872 18.7519C2.24872 19.1459 2.32632 19.536 2.47711 19.9C2.62789 20.2641 2.84889 20.5948 3.1275 20.8734C3.40611 21.152 3.73686 21.373 4.10088 21.5238C4.4649 21.6746 4.85505 21.7522 5.24906 21.7522C6.0448 21.7522 6.80795 21.4361 7.37062 20.8734C7.38281 20.8612 7.39594 20.8472 7.40719 20.8341L12.2869 15.1875C13.3148 15.6387 14.439 15.8264 15.5577 15.7337C16.6765 15.6409 17.7544 15.2706 18.694 14.6563C19.6335 14.042 20.405 13.203 20.9386 12.2153C21.4723 11.2277 21.7511 10.1226 21.75 8.99999C21.7515 8.13241 21.5846 7.27279 21.2587 6.46874ZM15 14.25C14.1123 14.2488 13.2392 14.023 12.4622 13.5937C12.3116 13.5106 12.1371 13.4817 11.9678 13.5119C11.7985 13.5421 11.6447 13.6296 11.5322 13.7597L6.29156 19.8291C6.00797 20.0985 5.63034 20.2465 5.2392 20.2415C4.84806 20.2365 4.47435 20.0788 4.19774 19.8022C3.92114 19.5256 3.76353 19.1519 3.75853 18.7608C3.75352 18.3696 3.90151 17.992 4.17094 17.7084L10.2356 12.4687C10.3659 12.3562 10.4536 12.2022 10.4838 12.0327C10.514 11.8632 10.485 11.6884 10.4016 11.5378C9.92346 10.6731 9.69909 9.69101 9.75425 8.70447C9.8094 7.71793 10.1418 6.76698 10.7133 5.96095C11.2848 5.15491 12.0722 4.52652 12.9849 4.14801C13.8976 3.76949 14.8986 3.65623 15.8728 3.82124L12.9478 6.99093C12.8664 7.07922 12.8074 7.18575 12.7758 7.30158C12.7441 7.41741 12.7408 7.53915 12.7659 7.65655L13.2966 10.125C13.3269 10.2662 13.3974 10.3956 13.4995 10.4977C13.6016 10.5998 13.731 10.6703 13.8722 10.7006L16.3425 11.2312C16.4599 11.2564 16.5816 11.253 16.6975 11.2214C16.8133 11.1897 16.9198 11.1308 17.0081 11.0494L20.1778 8.12437C20.3042 8.87719 20.265 9.6485 20.0631 10.3847C19.8612 11.1208 19.5013 11.8041 19.0085 12.3871C18.5157 12.9701 17.9019 13.4388 17.2096 13.7605C16.5174 14.0822 15.7633 14.2492 15 14.25Z" fill="#9CA3AF"/>
</svg>
