<svg width="24" height="24" viewBox="0 0 24 24" fill="none" xmlns="http://www.w3.org/2000/svg">
<path d="M13.5 7.50002C13.5 7.30111 13.579 7.11034 13.7196 6.96969C13.8603 6.82904 14.0511 6.75002 14.25 6.75002H23.25C23.4489 6.75002 23.6396 6.82904 23.7803 6.96969C23.9209 7.11034 24 7.30111 24 7.50002C24 7.69893 23.9209 7.8897 23.7803 8.03035C23.6396 8.171 23.4489 8.25002 23.25 8.25002H14.25C14.0511 8.25002 13.8603 8.171 13.7196 8.03035C13.579 7.8897 13.5 7.69893 13.5 7.50002ZM23.25 11.25H14.25C14.0511 11.25 13.8603 11.329 13.7196 11.4697C13.579 11.6103 13.5 11.8011 13.5 12C13.5 12.1989 13.579 12.3897 13.7196 12.5304C13.8603 12.671 14.0511 12.75 14.25 12.75H23.25C23.4489 12.75 23.6396 12.671 23.7803 12.5304C23.9209 12.3897 24 12.1989 24 12C24 11.8011 23.9209 11.6103 23.7803 11.4697C23.6396 11.329 23.4489 11.25 23.25 11.25ZM23.25 15.75H16.5C16.3011 15.75 16.1103 15.829 15.9696 15.9697C15.829 16.1103 15.75 16.3011 15.75 16.5C15.75 16.6989 15.829 16.8897 15.9696 17.0304C16.1103 17.171 16.3011 17.25 16.5 17.25H23.25C23.4489 17.25 23.6396 17.171 23.7803 17.0304C23.9209 16.8897 24 16.6989 24 16.5C24 16.3011 23.9209 16.1103 23.7803 15.9697C23.6396 15.829 23.4489 15.75 23.25 15.75ZM14.2265 17.8125C14.251 17.9079 14.2565 18.0072 14.2427 18.1048C14.2288 18.2023 14.1958 18.2962 14.1457 18.3809C14.0955 18.4657 14.0292 18.5398 13.9504 18.599C13.8716 18.6581 13.7819 18.7012 13.6865 18.7256C13.6254 18.7421 13.5623 18.7503 13.499 18.75C13.3327 18.7501 13.171 18.6949 13.0395 18.5931C12.908 18.4912 12.814 18.3486 12.7725 18.1875C12.195 15.9431 9.92809 14.25 7.49903 14.25C5.06996 14.25 2.80309 15.9422 2.22559 18.1875C2.17586 18.3802 2.05162 18.5453 1.8802 18.6464C1.70878 18.7475 1.50422 18.7763 1.31153 18.7266C1.11883 18.6769 0.95378 18.5526 0.852686 18.3812C0.751592 18.2098 0.722735 18.0052 0.772463 17.8125C1.29653 15.7772 2.81996 14.1291 4.75309 13.3125C4.00874 12.7392 3.46251 11.9473 3.19101 11.0478C2.91951 10.1484 2.93634 9.18648 3.23916 8.29707C3.54198 7.40766 4.11559 6.63535 4.87954 6.08843C5.6435 5.54152 6.55948 5.24744 7.49903 5.24744C8.43857 5.24744 9.35455 5.54152 10.1185 6.08843C10.8825 6.63535 11.4561 7.40766 11.7589 8.29707C12.0617 9.18648 12.0785 10.1484 11.807 11.0478C11.5355 11.9473 10.9893 12.7392 10.245 13.3125C12.179 14.1291 13.7025 15.7772 14.2265 17.8125ZM7.49996 12.75C8.09331 12.75 8.67333 12.5741 9.16667 12.2444C9.66002 11.9148 10.0445 11.4462 10.2716 10.8981C10.4987 10.3499 10.5581 9.74669 10.4423 9.16475C10.3266 8.58281 10.0408 8.04826 9.62128 7.6287C9.20173 7.20914 8.66718 6.92342 8.08523 6.80766C7.50329 6.69191 6.90009 6.75132 6.35191 6.97838C5.80373 7.20545 5.3352 7.58996 5.00555 8.08331C4.67591 8.57666 4.49996 9.15668 4.49996 9.75002C4.49996 10.5457 4.81603 11.3087 5.37864 11.8713C5.94125 12.434 6.70431 12.75 7.49996 12.75Z" fill="#9CA3AF"/>
</svg>
